<?xml version="1.0" encoding="UTF-8"?>
<!-- Generator: Adobe Illustrator 25.2.1, SVG Export Plug-In . SVG Version: 6.00 Build 0)  -->
<svg xmlns="http://www.w3.org/2000/svg" xmlns:xlink="http://www.w3.org/1999/xlink" version="1.1" id="Capa_1" x="0px" y="0px" viewBox="0 0 378.8 92.4" style="enable-background:new 0 0 378.8 92.4;" xml:space="preserve">
<g>
	<g>
		<path d="M121.5,32.4c-4.6-7.6-13-12.7-22.6-12.7c-14.6,0-26.4,11.8-26.4,26.4c0,14.6,11.8,26.4,26.4,26.4c9.6,0,18-5.1,22.6-12.7    v11.8h17v-51h-17V32.4z"></path>
		<path d="M41.4,19.7c-9.6,0-18,5.1-22.6,12.7V1.5h-17v70.1h17V59.8c4.6,7.6,13,12.7,22.6,12.7c14.6,0,26.4-11.8,26.4-26.4    C67.8,31.5,56,19.7,41.4,19.7z"></path>
		<path d="M145.8,20.6v25.5c0,14.6,11.8,26.4,26.4,26.4c14.6,0,26.4-11.8,26.4-26.4V20.6H145.8z"></path>
	</g>
	<g>
		<path d="M223.4,29.9c0,2.2-1.8,3.6-4.6,3.6H212v-13h6.4c2.8,0,4.4,1.3,4.4,3.5c0,1.2-0.7,2.5-1.8,2.8    C222.6,27.2,223.4,28.5,223.4,29.9z M215.2,25.9h2.7c1.2,0,1.9-0.5,1.9-1.4c0-0.8-0.6-1.3-1.9-1.3h-2.7V25.9z M218.3,30.9    c1.3,0,1.9-0.5,1.9-1.4c0-0.8-0.6-1.2-1.8-1.2h-3.2v2.6H218.3z"></path>
		<path d="M228,31.3l-0.9,2.2h-3.4l5.5-13h3.1l5.5,13h-3.4l-0.9-2.2H228z M230.8,24.3l-1.7,4.3h3.4L230.8,24.3z"></path>
		<path d="M250.2,27.5c0,2-0.5,3.5-1.6,4.7c-1.1,1.1-2.6,1.7-4.4,1.7c-1.9,0-3.4-0.6-4.4-1.7c-1.1-1.1-1.6-2.7-1.6-4.7v-6.9h3.2v7    c0,2,1.1,3.3,2.8,3.3s2.8-1.3,2.8-3.3v-7h3.2V27.5z"></path>
		<path d="M252.3,33.6c-0.7-0.3-1-0.7-1-1.4c0-0.9,0.8-1.6,1.7-1.6c1,0,1.7,0.7,1.7,1.6c0,0.4-0.2,0.9-0.6,1.6l-1.1,1.9h-1.7    L252.3,33.6z"></path>
		<path d="M270.3,28.2h3.3c-0.2,1.7-0.9,3.1-2.1,4.1c-1.2,1-2.7,1.5-4.4,1.5c-2,0-3.6-0.6-4.9-1.9c-1.3-1.3-2-2.9-2-4.8    s0.6-3.5,2-4.8c1.3-1.3,2.9-1.9,4.9-1.9c1.8,0,3.2,0.5,4.4,1.6c1.2,1,1.9,2.4,2.1,4.1h-3.3c-0.4-1.7-1.5-2.6-3.2-2.6    c-1,0-1.9,0.4-2.6,1.1c-0.7,0.7-1,1.6-1,2.7c0,1.1,0.3,2,1,2.7c0.7,0.7,1.5,1,2.6,1C268.7,30.8,269.9,29.8,270.3,28.2z"></path>
		<path d="M278.6,25.8h5.8v2.7h-5.8v2.3h6.6v2.8h-9.8v-13h9.8v2.8h-6.6V25.8z"></path>
		<path d="M299.1,33.6h-2.5l-6.2-7.1v7.1h-3.2v-13h2.5l6.3,7.3v-7.3h3.2V33.6z"></path>
		<path d="M307.7,23.5v10.1h-3.2V23.5h-4.1v-2.9h11.5v2.9H307.7z"></path>
		<path d="M316.2,29.8v3.8H313v-13h5.7c1.6,0,2.9,0.4,3.9,1.2c1,0.8,1.5,1.9,1.5,3.3c0,1.8-0.9,3.2-2.5,4l3.3,4.4H321l-2.8-3.8    H316.2z M318.6,26.9c1.3,0,2.2-0.7,2.2-1.8c0-1-0.9-1.7-2.2-1.7h-2.4v3.5H318.6z"></path>
		<path d="M329.4,25.8h5.8v2.7h-5.8v2.3h6.6v2.8h-9.8v-13h9.8v2.8h-6.6V25.8z"></path>
		<path d="M223.9,46.6c0,2-0.5,3.5-1.6,4.7c-1.1,1.1-2.6,1.7-4.4,1.7c-1.9,0-3.4-0.6-4.4-1.7c-1.1-1.1-1.6-2.7-1.6-4.7v-6.9h3.2v7    c0,2,1.1,3.3,2.8,3.3c1.7,0,2.8-1.3,2.8-3.3v-7h3.2V46.6z"></path>
		<path d="M238,52.6h-2.5l-6.2-7.1v7.1H226v-13h2.5l6.3,7.3v-7.3h3.2V52.6z"></path>
		<path d="M243.5,52.6h-3.2v-13h3.2V52.6z"></path>
		<path d="M253.5,52.7h-3.3l-5.6-13h3.5l3.7,8.8l3.7-8.8h3.5L253.5,52.7z"></path>
		<path d="M263.4,44.8h5.8v2.7h-5.8v2.3h6.6v2.8h-9.8v-13h9.8v2.8h-6.6V44.8z"></path>
		<path d="M275.2,48.9v3.8H272v-13h5.7c1.6,0,2.9,0.4,3.9,1.2c1,0.8,1.5,1.9,1.5,3.3c0,1.8-0.9,3.2-2.5,4l3.3,4.4H280l-2.8-3.8    H275.2z M277.6,46c1.3,0,2.2-0.7,2.2-1.8c0-1-0.9-1.7-2.2-1.7h-2.4V46H277.6z"></path>
		<path d="M293.5,40.2c1.1,0.6,2,1.8,2.1,3.5h-3.2c-0.2-1.1-0.9-1.6-2.1-1.6c-1.1,0-1.8,0.5-1.8,1.3c0,0.7,0.5,1,1.5,1.2l1.8,0.4    c2.6,0.6,3.9,1.6,3.9,3.7c0,1.3-0.5,2.3-1.5,3.1c-1,0.7-2.3,1.1-3.9,1.1c-1.6,0-2.9-0.4-4-1.1c-1.1-0.8-1.7-1.9-1.8-3.4h3.2    c0.2,1.1,1.2,1.8,2.7,1.8c1.2,0,1.8-0.4,1.8-1.1c0-0.6-0.5-0.9-1.4-1.1l-2.1-0.5c-2.6-0.6-3.8-1.8-3.8-3.8c0-1.3,0.5-2.3,1.4-3.1    c1-0.8,2.2-1.2,3.7-1.2C291.2,39.4,292.3,39.6,293.5,40.2z"></path>
		<path d="M300.8,52.6h-3.2v-13h3.2V52.6z"></path>
		<path d="M309.3,42.5v10.1h-3.2V42.5H302v-2.9h11.5v2.9H309.3z"></path>
		<path d="M316.4,50.4l-0.9,2.2h-3.4l5.5-13h3.1l5.5,13h-3.4l-0.9-2.2H316.4z M319.1,43.3l-1.7,4.3h3.4L319.1,43.3z"></path>
		<path d="M330.5,48.9v3.8h-3.2v-13h5.7c1.6,0,2.9,0.4,3.9,1.2c1,0.8,1.5,1.9,1.5,3.3c0,1.8-0.9,3.2-2.5,4l3.3,4.4h-3.9l-2.8-3.8    H330.5z M332.9,46c1.3,0,2.2-0.7,2.2-1.8c0-1-0.9-1.7-2.2-1.7h-2.4V46H332.9z"></path>
		<path d="M343.6,52.6h-3.2v-13h3.2V52.6z"></path>
		<path d="M217.2,58.7c2,0,3.7,0.6,5,1.8c1.3,1.2,2,2.7,2,4.6c0,1.9-0.6,3.5-2,4.7c-1.3,1.2-3,1.8-5,1.8H212v-13H217.2z M217.2,68.8    c1,0,1.9-0.3,2.7-1c0.7-0.7,1.1-1.6,1.1-2.6c0-1-0.4-1.8-1.1-2.5c-0.7-0.7-1.6-1-2.7-1h-2v7.2H217.2z"></path>
		<path d="M226.2,61.5c-0.7-0.3-1-0.7-1-1.4c0-0.9,0.7-1.6,1.7-1.6c1,0,1.7,0.7,1.7,1.6c0,0.5-0.1,0.7-0.6,1.6l-1.1,1.9h-1.7    L226.2,61.5z"></path>
		<path d="M232,69.5l-0.9,2.2h-3.4l5.5-13h3.1l5.5,13h-3.4l-0.9-2.2H232z M234.8,62.4l-1.7,4.3h3.4L234.8,62.4z"></path>
		<path d="M246.1,67.9v3.8h-3.2v-13h5.7c1.6,0,2.9,0.4,3.9,1.2c1,0.8,1.5,1.9,1.5,3.3c0,1.8-0.9,3.2-2.5,4l3.3,4.4H251l-2.8-3.8    H246.1z M248.5,65.1c1.3,0,2.2-0.7,2.2-1.8c0-1-0.9-1.7-2.2-1.7h-2.4v3.5H248.5z"></path>
		<path d="M262.4,61.6v10.1h-3.2V61.6h-4.1v-2.9h11.5v2.9H262.4z"></path>
		<path d="M276.3,59.3c1.1,0.6,2,1.8,2.1,3.5h-3.2c-0.2-1.1-0.9-1.6-2.1-1.6c-1.1,0-1.8,0.5-1.8,1.3c0,0.7,0.5,1,1.5,1.2l1.8,0.4    c2.6,0.6,3.9,1.6,3.9,3.7c0,1.3-0.5,2.3-1.5,3.1c-1,0.7-2.3,1.1-3.9,1.1c-1.6,0-2.9-0.4-4-1.1c-1.1-0.8-1.7-1.9-1.8-3.4h3.2    c0.2,1.1,1.2,1.8,2.7,1.8c1.2,0,1.8-0.4,1.8-1.1c0-0.6-0.5-0.9-1.4-1.1l-2.1-0.5c-2.6-0.6-3.8-1.8-3.8-3.8c0-1.3,0.5-2.3,1.4-3.1    c1-0.8,2.2-1.2,3.7-1.2C274.1,58.5,275.2,58.7,276.3,59.3z"></path>
		<path d="M287.9,71.7h-3.2v-13h3.2V71.7z"></path>
		<path d="M299.5,58.7c2,0,3.7,0.6,5,1.8c1.3,1.2,2,2.7,2,4.6c0,1.9-0.6,3.5-2,4.7c-1.3,1.2-3,1.8-5,1.8h-5.2v-13H299.5z     M299.5,68.8c1,0,1.9-0.3,2.7-1c0.7-0.7,1.1-1.6,1.1-2.6c0-1-0.4-1.8-1.1-2.5c-0.7-0.7-1.6-1-2.7-1h-2v7.2H299.5z"></path>
		<path d="M311.4,71.7h-3.2v-13h3.2V71.7z"></path>
		<path d="M322.2,59.3c1.1,0.6,2,1.8,2.1,3.5h-3.2c-0.2-1.1-0.9-1.6-2.1-1.6c-1.1,0-1.8,0.5-1.8,1.3c0,0.7,0.5,1,1.5,1.2l1.8,0.4    c2.6,0.6,3.9,1.6,3.9,3.7c0,1.3-0.5,2.3-1.5,3.1c-1,0.7-2.3,1.1-3.9,1.1c-1.6,0-2.9-0.4-4-1.1c-1.1-0.8-1.7-1.9-1.8-3.4h3.2    c0.2,1.1,1.2,1.8,2.7,1.8c1.2,0,1.8-0.4,1.8-1.1c0-0.6-0.5-0.9-1.4-1.1l-2.1-0.5c-2.6-0.6-3.8-1.8-3.8-3.8c0-1.3,0.5-2.3,1.4-3.1    c1-0.8,2.2-1.2,3.7-1.2C320,58.5,321.1,58.7,322.2,59.3z"></path>
		<path d="M334.8,59.3c1.1,0.6,2,1.8,2.1,3.5h-3.2c-0.2-1.1-0.9-1.6-2.1-1.6c-1.1,0-1.8,0.5-1.8,1.3c0,0.7,0.5,1,1.5,1.2l1.8,0.4    c2.6,0.6,3.9,1.6,3.9,3.7c0,1.3-0.5,2.3-1.5,3.1c-1,0.7-2.3,1.1-3.9,1.1c-1.6,0-2.9-0.4-4-1.1c-1.1-0.8-1.7-1.9-1.8-3.4h3.2    c0.2,1.1,1.2,1.8,2.7,1.8c1.2,0,1.8-0.4,1.8-1.1c0-0.6-0.5-0.9-1.4-1.1l-2.1-0.5c-2.6-0.6-3.8-1.8-3.8-3.8c0-1.3,0.5-2.3,1.4-3.1    c1-0.8,2.2-1.2,3.7-1.2C332.6,58.5,333.7,58.7,334.8,59.3z"></path>
		<path d="M342.2,63.9h5.8v2.7h-5.8v2.3h6.6v2.8h-9.8v-13h9.8v2.8h-6.6V63.9z"></path>
		<path d="M362.7,71.7h-2.5l-6.2-7.1v7.1h-3.2v-13h2.5l6.3,7.3v-7.3h3.2V71.7z"></path>
		<path d="M372.1,67.8v3.9h-3.2v-3.9l-5.1-9.1h3.6l3.2,5.6l3.2-5.6h3.6L372.1,67.8z"></path>
		<path d="M217.2,77.8c2,0,3.7,0.6,5,1.8c1.3,1.2,2,2.7,2,4.6c0,1.9-0.6,3.5-2,4.7c-1.3,1.2-3,1.8-5,1.8H212v-13H217.2z M217.2,87.9    c1,0,1.9-0.3,2.7-1c0.7-0.7,1.1-1.6,1.1-2.6c0-1-0.4-1.8-1.1-2.5c-0.7-0.7-1.6-1-2.7-1h-2v7.2H217.2z"></path>
		<path d="M229.1,83h5.8v2.7h-5.8V88h6.6v2.8h-9.8v-13h9.8v2.8h-6.6V83z"></path>
		<path d="M253.1,87.2c0,2.2-1.8,3.6-4.6,3.6h-6.8v-13h6.4c2.8,0,4.4,1.3,4.4,3.5c0,1.2-0.7,2.5-1.8,2.8    C252.2,84.4,253.1,85.7,253.1,87.2z M244.9,83.1h2.7c1.2,0,1.9-0.5,1.9-1.4c0-0.8-0.6-1.3-1.9-1.3h-2.7V83.1z M248,88.1    c1.3,0,1.9-0.5,1.9-1.4c0-0.8-0.6-1.2-1.8-1.2h-3.2v2.6H248z"></path>
		<path d="M257.7,88.6l-0.9,2.2h-3.4l5.5-13h3.1l5.5,13h-3.4l-0.9-2.2H257.7z M260.5,81.5l-1.7,4.3h3.4L260.5,81.5z"></path>
		<path d="M271.8,87v3.8h-3.2v-13h5.7c1.6,0,2.9,0.4,3.9,1.2c1,0.8,1.5,1.9,1.5,3.3c0,1.8-0.9,3.2-2.5,4l3.3,4.4h-3.9l-2.8-3.8    H271.8z M274.2,84.1c1.3,0,2.2-0.7,2.2-1.8c0-1-0.9-1.7-2.2-1.7h-2.4v3.5H274.2z"></path>
		<path d="M291.1,85.4h3.3c-0.2,1.7-0.9,3.1-2.1,4.1c-1.2,1-2.7,1.5-4.4,1.5c-2,0-3.6-0.6-4.9-1.9c-1.3-1.3-2-2.9-2-4.8    c0-1.9,0.6-3.5,2-4.8c1.3-1.3,2.9-1.9,4.9-1.9c1.8,0,3.2,0.5,4.4,1.6c1.2,1,1.9,2.4,2.1,4.1h-3.3c-0.4-1.7-1.5-2.6-3.2-2.6    c-1,0-1.9,0.4-2.6,1.1c-0.7,0.7-1,1.6-1,2.7c0,1.1,0.3,2,1,2.7c0.7,0.7,1.5,1,2.6,1C289.6,88,290.7,87.1,291.1,85.4z"></path>
		<path d="M299.5,83h5.8v2.7h-5.8V88h6.6v2.8h-9.8v-13h9.8v2.8h-6.6V83z"></path>
		<path d="M317.7,90.8h-9.6v-13h3.2v10.1h6.4V90.8z"></path>
		<path d="M325.2,77.5c1.9,0,3.6,0.6,4.9,2c1.3,1.3,2,2.9,2,4.8c0,1.9-0.7,3.5-2,4.8c-1.3,1.3-2.9,1.9-4.9,1.9    c-1.9,0-3.6-0.6-4.9-1.9c-1.3-1.3-2-2.9-2-4.8c0-1.9,0.6-3.5,2-4.8C321.6,78.2,323.2,77.5,325.2,77.5z M325.2,88.1    c1,0,1.9-0.4,2.6-1.1c0.7-0.7,1-1.6,1-2.7c0-1-0.3-1.9-1-2.7c-0.7-0.7-1.5-1.1-2.6-1.1s-1.9,0.4-2.6,1.1c-0.7,0.7-1,1.6-1,2.7    c0,1,0.3,1.9,1,2.7C323.3,87.7,324.1,88.1,325.2,88.1z"></path>
		<path d="M345.8,90.8h-2.5l-6.2-7.1v7.1h-3.2v-13h2.5l6.3,7.3v-7.3h3.2V90.8z"></path>
		<path d="M351.2,88.6l-0.9,2.2h-3.4l5.5-13h3.1l5.5,13h-3.4l-0.9-2.2H351.2z M353.9,81.5l-1.7,4.3h3.4L353.9,81.5z"></path>
	</g>
</g>
</svg>
